<svg xmlns="http://www.w3.org/2000/svg" width="512" height="512" viewBox="0 0 512 512"><defs>
  <linearGradient id="g" x1="0" y1="0" x2="1" y2="1">
    <stop offset="0" stop-color="#6a61f2"/><stop offset="0.5" stop-color="#8f5cf0"/><stop offset="1" stop-color="#b657cf"/>
  </linearGradient>
  <radialGradient id="glow" cx="0.24" cy="0.82" r="0.75">
    <stop offset="0" stop-color="#e968d6" stop-opacity="0.85"/><stop offset="0.55" stop-color="#e968d6" stop-opacity="0"/>
  </radialGradient>
  <radialGradient id="glow2" cx="0.82" cy="0.14" r="0.7">
    <stop offset="0" stop-color="#6f7bff" stop-opacity="0.55"/><stop offset="0.6" stop-color="#6f7bff" stop-opacity="0"/>
  </radialGradient>
</defs>
  <rect x="16" y="16" width="480" height="480" rx="116" fill="url(#g)"/><rect x="16" y="16" width="480" height="480" rx="116" fill="url(#glow)"/><rect x="16" y="16" width="480" height="480" rx="116" fill="url(#glow2)"/><g fill="#fff">
  <path d="M 232 132 Q 254 226 348 248 Q 254 270 232 364 Q 210 270 116 248 Q 210 226 232 132 Z"/>
  <rect x="348" y="146" width="46" height="9" rx="4.5"/>
  <rect x="366.5" y="127" width="9" height="46" rx="4.5"/>
  <path d="M 150 342 L 163 355 L 150 368 L 137 355 Z"/>
</g></svg>